<svg width="269" height="300" viewBox="0 0 269 300" fill="none" xmlns="http://www.w3.org/2000/svg">
<path d="M87.2834 105.504L51.9471 249.146C50.4582 255.187 50.9047 261.549 53.2225 267.318C55.5403 273.087 59.6103 277.967 64.8481 281.257C78.3273 289.714 100.612 298.868 134.689 299.918C170.81 301.031 194.839 290.562 209.048 281.059C214.07 277.698 217.937 272.851 220.12 267.184C222.303 261.517 222.695 255.308 221.241 249.407L185.839 105.504" fill="#F3F8FF"/>
<path d="M136.561 112.176C183.411 112.176 221.391 99.2541 221.391 83.3144C221.391 67.3748 183.411 54.4531 136.561 54.4531C89.7105 54.4531 51.7308 67.3748 51.7308 83.3144C51.7308 99.2541 89.7105 112.176 136.561 112.176Z" fill="#072F57"/>
<path d="M136.561 112.655C113.851 112.655 92.4949 109.644 76.4254 104.175C60.1947 98.6529 51.2559 91.2441 51.2559 83.3132C51.2559 75.3824 60.1939 67.9736 76.4254 62.4514C92.4949 56.9843 113.851 53.9717 136.561 53.9717C159.27 53.9717 180.627 56.983 196.697 62.4514C212.927 67.9736 221.866 75.3824 221.866 83.3132C221.866 91.2441 212.928 98.6529 196.697 104.175C180.627 109.644 159.27 112.655 136.561 112.655ZM136.561 54.9322C113.952 54.9322 92.7032 57.9253 76.7284 63.3602C60.9146 68.7405 52.2054 75.8271 52.2054 83.3145C52.2054 90.8019 60.9146 97.8885 76.7284 103.269C92.7032 108.704 113.952 111.697 136.561 111.697C159.17 111.697 180.418 108.704 196.393 103.269C212.207 97.8885 220.916 90.8019 220.916 83.3145C220.916 75.8271 212.207 68.7405 196.393 63.3602C180.418 57.9253 159.17 54.9322 136.561 54.9322Z" fill="#072F57"/>
<path d="M136.561 101.181C198.116 101.181 248.016 87.3312 248.016 70.2465C248.016 53.1619 198.116 39.312 136.561 39.312C75.0058 39.312 25.1056 53.1619 25.1056 70.2465C25.1056 87.3312 75.0058 101.181 136.561 101.181Z" fill="#086ACE"/>
<path d="M136.561 101.66C106.748 101.66 78.7146 98.4359 57.6238 92.582C36.3476 86.6768 24.6302 78.7447 24.6302 70.2452C24.6302 61.7456 36.3476 53.8147 57.6238 47.9083C78.7146 42.0544 106.748 38.8308 136.561 38.8308C166.373 38.8308 194.406 42.0544 215.497 47.9083C236.773 53.8135 248.491 61.746 248.491 70.2452C248.491 78.7443 236.773 86.6756 215.497 92.582C194.406 98.4359 166.373 101.66 136.561 101.66ZM136.561 39.7909C106.831 39.7909 78.8868 43.0028 57.8755 48.8344C47.6866 51.6621 39.6953 54.9502 34.1226 58.6068C28.4539 62.3267 25.5798 66.2427 25.5798 70.2464C25.5798 74.2501 28.4539 78.1665 34.1226 81.886C39.6953 85.5426 47.6866 88.8307 57.8755 91.6588C78.8868 97.4912 106.83 100.702 136.561 100.702C166.292 100.702 194.234 97.4903 215.246 91.6588C225.434 88.8307 233.426 85.5426 238.999 81.886C244.667 78.1665 247.541 74.2501 247.541 70.2464C247.541 66.2427 244.667 62.3267 238.999 58.6068C233.426 54.9502 225.434 51.6621 215.246 48.8344C194.234 43.0028 166.29 39.7925 136.561 39.7925V39.7909Z" fill="#072F57"/>
<path d="M187.843 52.2169C187.843 65.8924 164.35 69.1139 139.851 69.6992C113.16 70.3366 85.28 65.6831 85.28 52.2169C85.3184 38.5204 90.7383 25.3981 100.351 15.7269C109.965 6.05569 122.986 0.624756 136.562 0.624756C150.138 0.624756 163.16 6.05569 172.773 15.7269C182.386 25.3981 187.806 38.5204 187.844 52.2169H187.843Z" fill="white"/>
<path d="M181.187 49.5096C181.064 49.5095 180.945 49.4611 180.857 49.3745C180.768 49.2878 180.716 49.1698 180.713 49.0455C180.568 44.1365 179.607 39.287 177.868 34.6998C177.823 34.5812 177.827 34.4493 177.878 34.3333C177.93 34.2173 178.024 34.1266 178.142 34.0812C178.26 34.0358 178.39 34.0394 178.505 34.0912C178.62 34.1429 178.71 34.2387 178.755 34.3573C180.532 39.0447 181.514 44 181.662 49.0161C181.666 49.143 181.619 49.2663 181.533 49.3588C181.447 49.4514 181.328 49.5056 181.202 49.5096H181.187Z" fill="#072F57"/>
<path d="M174.096 26.6701C174.017 26.6702 173.939 26.6504 173.869 26.6124C173.8 26.5744 173.741 26.5194 173.698 26.4525C167.432 16.8038 157.681 10.0039 146.521 7.50088C146.401 7.47094 146.297 7.39494 146.232 7.28906C146.166 7.18317 146.144 7.05575 146.171 6.93388C146.197 6.81202 146.27 6.70532 146.373 6.63647C146.476 6.56762 146.601 6.54206 146.723 6.56521C158.127 9.1225 168.091 16.0704 174.493 25.9292C174.539 26.0014 174.566 26.0851 174.569 26.1712C174.573 26.2574 174.553 26.3429 174.513 26.4188C174.472 26.4947 174.412 26.5581 174.338 26.6023C174.265 26.6465 174.181 26.6699 174.096 26.6701Z" fill="#072F57"/>
<path d="M134.879 70.237C112.206 70.237 94.9447 66.3901 88.1817 59.7304C85.9403 57.5223 84.8042 54.9941 84.8042 52.2165C84.785 45.3469 86.1096 38.5411 88.702 32.1888C91.2944 25.8366 95.1038 20.0629 99.9117 15.1985C104.72 10.3342 110.432 6.47474 116.721 3.84139C123.01 1.20805 129.752 -0.147461 136.561 -0.147461C143.37 -0.147461 150.112 1.20805 156.401 3.84139C162.69 6.47474 168.402 10.3342 173.21 15.1985C178.018 20.0629 181.827 25.8366 184.42 32.1888C187.012 38.5411 188.337 45.3469 188.317 52.2165C188.317 58.6673 183.219 63.4147 173.165 66.3268C165.429 68.5675 154.535 69.8271 139.862 70.1774C138.175 70.2171 136.514 70.237 134.879 70.237ZM136.56 0.956683C123.089 0.97201 110.175 6.37741 100.65 15.987C91.1252 25.5966 85.7674 38.6256 85.7521 52.2157C85.7521 54.7257 86.7923 57.0231 88.8439 59.0442C95.9131 66.0095 114.975 69.8122 139.839 69.2198C160.243 68.733 187.37 66.4397 187.37 52.2169C187.355 38.6265 181.997 25.5972 172.472 15.9875C162.946 6.37787 150.032 0.972704 136.561 0.957924L136.56 0.956683Z" fill="#072F57"/>
<path d="M53.5737 74.3871C57.2514 74.3871 60.2329 71.3791 60.2329 67.6686C60.2329 63.9581 57.2514 60.9502 53.5737 60.9502C49.8959 60.9502 46.9144 63.9581 46.9144 67.6686C46.9144 71.3791 49.8959 74.3871 53.5737 74.3871Z" fill="white"/>
<path d="M53.5738 74.8661C52.1629 74.8661 50.7836 74.444 49.6104 73.6531C48.4372 72.8622 47.5228 71.7381 46.9829 70.423C46.4429 69.1078 46.3016 67.6606 46.5769 66.2645C46.8522 64.8683 47.5316 63.5859 48.5293 62.5793C49.527 61.5727 50.7982 60.8872 52.1821 60.6095C53.5659 60.3318 55.0003 60.4743 56.3039 61.0191C57.6075 61.5638 58.7216 62.4863 59.5055 63.6699C60.2894 64.8536 60.7078 66.2451 60.7078 67.6686C60.7057 69.5768 59.9533 71.4063 58.6159 72.7556C57.2785 74.1049 55.4652 74.8639 53.5738 74.8661ZM53.5738 61.4288C52.3506 61.4288 51.1548 61.7947 50.1377 62.4804C49.1206 63.166 48.3279 64.1406 47.8598 65.2807C47.3917 66.4209 47.2692 67.6756 47.5078 68.886C47.7465 70.0964 48.3355 71.2082 49.2005 72.0809C50.0654 72.9535 51.1675 73.5478 52.3672 73.7886C53.567 74.0293 54.8105 73.9058 55.9407 73.4335C57.0708 72.9612 58.0367 72.1614 58.7164 71.1353C59.396 70.1092 59.7587 68.9028 59.7587 67.6686C59.7571 66.0142 59.1049 64.4281 57.9454 63.2582C56.7859 62.0884 55.2137 61.4304 53.5738 61.4288Z" fill="#072F57"/>
<path d="M136.561 93.6278C140.239 93.6278 143.22 90.6198 143.22 86.9094C143.22 83.1989 140.239 80.1909 136.561 80.1909C132.883 80.1909 129.902 83.1989 129.902 86.9094C129.902 90.6198 132.883 93.6278 136.561 93.6278Z" fill="white"/>
<path d="M136.561 94.1068C135.15 94.1068 133.771 93.6847 132.597 92.8938C131.424 92.1029 130.51 90.9789 129.97 89.6637C129.43 88.3485 129.289 86.9014 129.564 85.5052C129.839 84.109 130.519 82.8266 131.516 81.82C132.514 80.8134 133.785 80.1279 135.169 79.8502C136.553 79.5725 137.987 79.715 139.291 80.2598C140.594 80.8046 141.709 81.7271 142.492 82.9107C143.276 84.0943 143.695 85.4858 143.695 86.9094C143.693 88.8176 142.94 90.647 141.603 91.9963C140.265 93.3456 138.452 94.1046 136.561 94.1068ZM136.561 80.6699C135.338 80.6699 134.142 81.0359 133.125 81.7215C132.108 82.4071 131.315 83.3815 130.847 84.5216C130.379 85.6617 130.257 86.9163 130.495 88.1266C130.734 89.3369 131.323 90.4487 132.188 91.3213C133.053 92.1939 134.155 92.7882 135.354 93.0289C136.554 93.2697 137.797 93.1461 138.927 92.6738C140.058 92.2016 141.023 91.4019 141.703 90.3758C142.382 89.3497 142.745 88.1434 142.745 86.9094C142.743 85.2551 142.091 83.6691 140.932 82.4993C139.772 81.3296 138.2 80.6717 136.561 80.6699Z" fill="#072F57"/>
<path d="M219.533 74.3871C223.211 74.3871 226.192 71.3791 226.192 67.6686C226.192 63.9581 223.211 60.9502 219.533 60.9502C215.855 60.9502 212.874 63.9581 212.874 67.6686C212.874 71.3791 215.855 74.3871 219.533 74.3871Z" fill="white"/>
<path d="M219.533 74.8661C218.122 74.8661 216.743 74.444 215.57 73.6531C214.396 72.8622 213.482 71.7381 212.942 70.423C212.402 69.1078 212.261 67.6606 212.536 66.2645C212.811 64.8683 213.491 63.5859 214.489 62.5793C215.486 61.5727 216.757 60.8872 218.141 60.6095C219.525 60.3318 220.96 60.4743 222.263 61.0191C223.567 61.5638 224.681 62.4863 225.465 63.6699C226.249 64.8536 226.667 66.2451 226.667 67.6686C226.665 69.5768 225.913 71.4063 224.575 72.7556C223.238 74.1049 221.424 74.8639 219.533 74.8661ZM219.533 61.4288C218.31 61.4288 217.114 61.7947 216.097 62.4804C215.08 63.166 214.287 64.1406 213.819 65.2807C213.351 66.4209 213.228 67.6756 213.467 68.886C213.706 70.0964 214.295 71.2082 215.16 72.0809C216.025 72.9535 217.127 73.5478 218.326 73.7886C219.526 74.0293 220.77 73.9058 221.9 73.4335C223.03 72.9612 223.996 72.1614 224.676 71.1353C225.355 70.1092 225.718 68.9028 225.718 67.6686C225.716 66.0142 225.064 64.4281 223.905 63.2582C222.745 62.0884 221.173 61.4304 219.533 61.4288Z" fill="#072F57"/>
<path d="M184.143 86.9093C187.821 86.9093 190.803 83.9013 190.803 80.1909C190.803 76.4804 187.821 73.4724 184.143 73.4724C180.466 73.4724 177.484 76.4804 177.484 80.1909C177.484 83.9013 180.466 86.9093 184.143 86.9093Z" fill="white"/>
<path d="M184.143 87.3883C182.732 87.3883 181.353 86.9662 180.18 86.1753C179.007 85.3844 178.092 84.2603 177.552 82.9452C177.012 81.63 176.871 80.1829 177.146 78.7867C177.422 77.3905 178.101 76.1081 179.099 75.1015C180.096 74.0949 181.368 73.4094 182.751 73.1317C184.135 72.854 185.57 72.9965 186.873 73.5413C188.177 74.086 189.291 75.0086 190.075 76.1922C190.859 77.3758 191.277 78.7673 191.277 80.1908C191.275 82.0991 190.523 83.9285 189.185 85.2778C187.848 86.6271 186.035 87.3861 184.143 87.3883ZM184.143 73.951C182.92 73.9509 181.724 74.3168 180.707 75.0024C179.69 75.688 178.897 76.6625 178.429 77.8027C177.961 78.9429 177.838 80.1975 178.077 81.4079C178.315 82.6184 178.904 83.7302 179.769 84.6029C180.634 85.4756 181.736 86.07 182.936 86.3108C184.136 86.5516 185.379 86.428 186.51 85.9558C187.64 85.4835 188.606 84.6837 189.285 83.6576C189.965 82.6314 190.328 81.425 190.328 80.1908C190.326 78.5365 189.674 76.9504 188.514 75.7806C187.355 74.6107 185.783 73.9528 184.143 73.951Z" fill="#072F57"/>
<path d="M88.9782 87.8238C92.656 87.8238 95.6374 84.8159 95.6374 81.1054C95.6374 77.3949 92.656 74.387 88.9782 74.387C85.3004 74.387 82.319 77.3949 82.319 81.1054C82.319 84.8159 85.3004 87.8238 88.9782 87.8238Z" fill="white"/>
<path d="M88.9783 88.3033C87.5673 88.3033 86.188 87.8812 85.0148 87.0903C83.8416 86.2995 82.9272 85.1754 82.3873 83.8602C81.8473 82.5451 81.7061 81.0979 81.9813 79.7017C82.2566 78.3056 82.936 77.0231 83.9337 76.0165C84.9315 75.01 86.2026 74.3245 87.5865 74.0467C88.9703 73.769 90.4047 73.9116 91.7083 74.4563C93.0119 75.0011 94.1261 75.9236 94.91 77.1072C95.6939 78.2908 96.1123 79.6824 96.1123 81.1059C96.1101 83.0141 95.3578 84.8435 94.0204 86.1928C92.6829 87.5421 90.8696 88.3011 88.9783 88.3033ZM88.9783 74.866C87.7549 74.8656 86.5589 75.2313 85.5415 75.9167C84.5242 76.6021 83.7311 77.5765 83.2627 78.7167C82.7943 79.8568 82.6715 81.1115 82.91 82.3221C83.1484 83.5327 83.7373 84.6447 84.6023 85.5175C85.4672 86.3904 86.5693 86.9848 87.7691 87.2257C88.9689 87.4666 90.2126 87.3431 91.3429 86.8708C92.4731 86.3986 93.4391 85.5987 94.1188 84.5725C94.7984 83.5462 95.1611 82.3397 95.1611 81.1055C95.1593 79.4515 94.5074 77.8657 93.3483 76.696C92.1893 75.5264 90.6177 74.8682 88.9783 74.866Z" fill="#072F57"/>
<path d="M207.173 46.3117C206.677 47.8282 205.662 49.1169 204.309 49.9466C202.956 50.7763 201.355 51.0929 199.792 50.8397C198.229 50.5864 196.807 49.7798 195.78 48.5645C194.753 47.3492 194.189 45.8045 194.188 44.2075C194.188 44.0574 194.194 43.9105 194.204 43.7637C198.752 44.5302 203.085 45.3794 207.173 46.3117Z" fill="white"/>
<path d="M200.847 51.4041C198.956 51.4022 197.142 50.6433 195.805 49.2939C194.467 47.9446 193.715 46.1149 193.713 44.2066C193.713 44.0461 193.72 43.8885 193.73 43.7314L193.764 43.2031L194.282 43.2904C198.855 44.061 203.227 44.9202 207.279 45.8434L207.789 45.9601L207.625 46.461C207.156 47.9006 206.248 49.1538 205.031 50.0416C203.813 50.9293 202.349 51.4062 200.847 51.4041ZM194.664 44.327C194.692 45.7542 195.203 47.1289 196.114 48.2216C197.024 49.3143 198.278 50.0591 199.667 50.3318C201.056 50.6045 202.496 50.3885 203.746 49.72C204.996 49.0514 205.981 47.9706 206.537 46.6579C202.815 45.8203 198.826 45.0372 194.664 44.327Z" fill="#072F57"/>
<path d="M78.2175 44.2074C78.2171 45.7909 77.6624 47.3234 76.6513 48.5346C75.6401 49.7457 74.2375 50.5577 72.6909 50.8272C71.1442 51.0968 69.5529 50.8067 68.1976 50.008C66.8423 49.2093 65.8102 47.9534 65.2832 46.4618C69.3561 45.5228 73.673 44.6608 78.2081 43.8848C78.2142 43.9902 78.2175 44.0986 78.2175 44.2074Z" fill="white"/>
<path d="M71.559 51.4041C70.0868 51.4019 68.651 50.9416 67.4477 50.086C66.2443 49.2303 65.3319 48.0209 64.835 46.6227L64.6554 46.1148L65.1765 45.9948C69.2695 45.0513 73.627 44.1826 78.1276 43.4128L78.6491 43.3235L78.6811 43.8558C78.6881 43.9708 78.6913 44.0891 78.6913 44.2074C78.6892 46.1153 77.9371 47.9444 76.6 49.2935C75.2629 50.6426 73.45 51.4017 71.559 51.4041ZM65.9334 46.8039C66.5123 48.0797 67.5005 49.1214 68.7385 49.7609C69.9764 50.4004 71.3918 50.6003 72.7562 50.3285C74.1206 50.0566 75.3544 49.3287 76.2584 48.2624C77.1624 47.1961 77.6838 45.8536 77.7385 44.4515C73.6483 45.1605 69.6828 45.9506 65.9334 46.8039Z" fill="#072F57"/>
<path d="M4.84506 105.983C4.78273 105.983 4.72101 105.971 4.66343 105.947C4.60585 105.922 4.55354 105.887 4.50948 105.843C4.46543 105.798 4.4305 105.745 4.40668 105.687C4.38286 105.629 4.37063 105.567 4.37069 105.504V91.9906C4.36882 91.9266 4.37972 91.8628 4.40273 91.8031C4.42574 91.7433 4.46039 91.6889 4.50465 91.6429C4.5489 91.5969 4.60185 91.5603 4.66036 91.5354C4.71886 91.5104 4.78174 91.4976 4.84526 91.4976C4.90879 91.4976 4.97166 91.5104 5.03017 91.5354C5.08868 91.5603 5.14163 91.5969 5.18588 91.6429C5.23013 91.6889 5.26479 91.7433 5.2878 91.8031C5.31081 91.8628 5.32171 91.9266 5.31984 91.9906V105.504C5.31989 105.567 5.30765 105.629 5.28381 105.687C5.25997 105.746 5.225 105.798 5.1809 105.843C5.1368 105.887 5.08444 105.923 5.02681 105.947C4.96919 105.971 4.90742 105.983 4.84506 105.983Z" fill="#093C70"/>
<path d="M9.21558 99.2266H0.47478C0.348861 99.2266 0.228099 99.1761 0.13906 99.0863C0.0500214 98.9964 0 98.8746 0 98.7476C0 98.6205 0.0500214 98.4987 0.13906 98.4089C0.228099 98.319 0.348861 98.2686 0.47478 98.2686H9.21558C9.3415 98.2686 9.46226 98.319 9.5513 98.4089C9.64034 98.4987 9.69036 98.6205 9.69036 98.7476C9.69036 98.8746 9.64034 98.9964 9.5513 99.0863C9.46226 99.1761 9.3415 99.2266 9.21558 99.2266Z" fill="#093C70"/>
<path d="M100.785 157.193C100.723 157.193 100.661 157.181 100.603 157.157C100.546 157.133 100.493 157.097 100.449 157.053C100.405 157.008 100.37 156.956 100.346 156.898C100.323 156.839 100.31 156.777 100.311 156.714V143.201C100.309 143.137 100.32 143.073 100.343 143.013C100.366 142.954 100.4 142.899 100.444 142.853C100.489 142.807 100.542 142.771 100.6 142.746C100.659 142.721 100.722 142.708 100.785 142.708C100.849 142.708 100.911 142.721 100.97 142.746C101.028 142.771 101.081 142.807 101.126 142.853C101.17 142.899 101.205 142.954 101.228 143.013C101.251 143.073 101.262 143.137 101.26 143.201V156.714C101.26 156.777 101.247 156.839 101.224 156.898C101.2 156.956 101.165 157.009 101.121 157.053C101.077 157.098 101.024 157.133 100.967 157.157C100.909 157.181 100.847 157.193 100.785 157.193Z" fill="#093C70"/>
<path d="M105.156 150.437H96.4147C96.2888 150.437 96.168 150.386 96.079 150.296C95.99 150.207 95.9399 150.085 95.9399 149.958C95.9399 149.831 95.99 149.709 96.079 149.619C96.168 149.529 96.2888 149.479 96.4147 149.479H105.156C105.281 149.479 105.402 149.529 105.491 149.619C105.58 149.709 105.63 149.831 105.63 149.958C105.63 150.085 105.58 150.207 105.491 150.296C105.402 150.386 105.281 150.437 105.156 150.437Z" fill="#093C70"/>
<path d="M29.4448 289.974C29.3825 289.974 29.3207 289.961 29.2632 289.937C29.2056 289.913 29.1533 289.878 29.1092 289.833C29.0652 289.789 29.0302 289.736 29.0064 289.678C28.9826 289.62 28.9704 289.557 28.9704 289.495V275.981C28.9686 275.917 28.9794 275.853 29.0025 275.794C29.0255 275.734 29.0601 275.679 29.1044 275.633C29.1486 275.587 29.2016 275.551 29.2601 275.526C29.3186 275.501 29.3815 275.488 29.445 275.488C29.5085 275.488 29.5714 275.501 29.6299 275.526C29.6884 275.551 29.7414 275.587 29.7856 275.633C29.8299 275.679 29.8645 275.734 29.8875 275.794C29.9105 275.853 29.9214 275.917 29.9196 275.981V289.495C29.9196 289.557 29.9074 289.62 29.8835 289.678C29.8597 289.736 29.8247 289.789 29.7806 289.833C29.7365 289.878 29.6842 289.913 29.6265 289.937C29.5689 289.961 29.5072 289.974 29.4448 289.974Z" fill="#093C70"/>
<path d="M33.8154 283.217H25.0746C24.9487 283.217 24.828 283.167 24.7389 283.077C24.6499 282.987 24.5999 282.865 24.5999 282.738C24.5999 282.611 24.6499 282.489 24.7389 282.399C24.828 282.31 24.9487 282.259 25.0746 282.259H33.8154C33.9414 282.259 34.0621 282.31 34.1512 282.399C34.2402 282.489 34.2902 282.611 34.2902 282.738C34.2902 282.865 34.2402 282.987 34.1512 283.077C34.0621 283.167 33.9414 283.217 33.8154 283.217Z" fill="#093C70"/>
<path d="M232.839 181.247C232.713 181.247 232.593 181.197 232.504 181.107C232.415 181.017 232.365 180.895 232.365 180.768V160.212C232.365 160.085 232.415 159.964 232.504 159.874C232.593 159.784 232.713 159.733 232.839 159.733C232.965 159.733 233.086 159.784 233.175 159.874C233.264 159.964 233.314 160.085 233.314 160.212V180.768C233.314 180.895 233.264 181.017 233.175 181.107C233.086 181.197 232.965 181.247 232.839 181.247Z" fill="#093C70"/>
<path d="M239.489 170.969H226.192C226.066 170.969 225.946 170.919 225.857 170.829C225.768 170.739 225.718 170.617 225.718 170.49C225.718 170.363 225.768 170.241 225.857 170.152C225.946 170.062 226.066 170.011 226.192 170.011H239.489C239.615 170.011 239.735 170.062 239.824 170.152C239.913 170.241 239.963 170.363 239.963 170.49C239.963 170.617 239.913 170.739 239.824 170.829C239.735 170.919 239.615 170.969 239.489 170.969Z" fill="#093C70"/>
<path d="M67.3919 241.16C67.266 241.16 67.1452 241.109 67.0562 241.019C66.9671 240.93 66.9171 240.808 66.9171 240.681V220.125C66.9171 219.998 66.9671 219.876 67.0562 219.786C67.1452 219.696 67.266 219.646 67.3919 219.646C67.5178 219.646 67.6386 219.696 67.7276 219.786C67.8166 219.876 67.8667 219.998 67.8667 220.125V240.681C67.8666 240.808 67.8165 240.929 67.7275 241.019C67.6385 241.109 67.5178 241.16 67.3919 241.16Z" fill="#093C70"/>
<path d="M74.0412 230.882H60.7449C60.619 230.882 60.4982 230.831 60.4092 230.742C60.3201 230.652 60.2701 230.53 60.2701 230.403C60.2701 230.276 60.3201 230.154 60.4092 230.064C60.4982 229.974 60.619 229.924 60.7449 229.924H74.0412C74.1671 229.924 74.2879 229.974 74.3769 230.064C74.466 230.154 74.516 230.276 74.516 230.403C74.516 230.53 74.466 230.652 74.3769 230.742C74.2879 230.831 74.1671 230.882 74.0412 230.882Z" fill="#093C70"/>
<path d="M205.562 275.492C205.436 275.492 205.315 275.442 205.226 275.352C205.137 275.262 205.087 275.14 205.087 275.013V254.458C205.087 254.33 205.137 254.209 205.226 254.119C205.315 254.029 205.436 253.979 205.562 253.979C205.688 253.979 205.808 254.029 205.897 254.119C205.986 254.209 206.036 254.33 206.036 254.458V275.013C206.036 275.14 205.986 275.262 205.897 275.352C205.808 275.442 205.688 275.492 205.562 275.492Z" fill="#093C70"/>
<path d="M212.211 265.214H198.915C198.789 265.214 198.668 265.164 198.579 265.074C198.49 264.984 198.44 264.862 198.44 264.735C198.44 264.608 198.49 264.486 198.579 264.397C198.668 264.307 198.789 264.256 198.915 264.256H212.211C212.337 264.256 212.458 264.307 212.547 264.397C212.636 264.486 212.686 264.608 212.686 264.735C212.686 264.862 212.636 264.984 212.547 265.074C212.458 265.164 212.337 265.214 212.211 265.214Z" fill="#093C70"/>
<path d="M265.201 116.261C265.139 116.261 265.077 116.248 265.02 116.224C264.962 116.2 264.91 116.165 264.865 116.121C264.821 116.076 264.786 116.023 264.763 115.965C264.739 115.907 264.727 115.845 264.727 115.782V105.504C264.727 105.377 264.777 105.255 264.866 105.165C264.955 105.075 265.075 105.025 265.201 105.025C265.327 105.025 265.448 105.075 265.537 105.165C265.626 105.255 265.676 105.377 265.676 105.504V115.782C265.676 115.845 265.664 115.907 265.64 115.965C265.616 116.023 265.581 116.076 265.537 116.121C265.493 116.165 265.441 116.2 265.383 116.224C265.325 116.248 265.264 116.261 265.201 116.261Z" fill="#093C70"/>
<path d="M268.526 111.122H261.877C261.815 111.122 261.753 111.11 261.696 111.086C261.638 111.062 261.586 111.026 261.542 110.982C261.498 110.937 261.463 110.884 261.439 110.826C261.415 110.768 261.403 110.706 261.403 110.643C261.403 110.58 261.415 110.518 261.439 110.46C261.463 110.402 261.498 110.349 261.542 110.304C261.586 110.26 261.638 110.225 261.696 110.201C261.753 110.176 261.815 110.164 261.877 110.164H268.526C268.652 110.164 268.772 110.215 268.861 110.304C268.95 110.394 269 110.516 269 110.643C269 110.77 268.95 110.892 268.861 110.982C268.772 111.072 268.652 111.122 268.526 111.122Z" fill="#093C70"/>
</svg>
